<?xml version="1.0" ?><!DOCTYPE svg  PUBLIC '-//W3C//DTD SVG 1.1//EN'  'http://www.w3.org/Graphics/SVG/1.1/DTD/svg11.dtd'><svg enable-background="new 0 0 64 64" height="64px" id="Layer_1" version="1.1" viewBox="0 0 64 64" width="64px" xml:space="preserve" xmlns="http://www.w3.org/2000/svg" xmlns:xlink="http://www.w3.org/1999/xlink"><g id="joystick_1_"><g><g><path d="M16,30c1.1,0,2,0.9,2,2v3h3c1.1,0,2,0.9,2,2s-0.9,2-2,2h-3v3c0,1.1-0.9,2-2,2s-2-0.9-2-2v-3h-3     c-1.1,0-2-0.9-2-2s0.9-2,2-2h3v-3C14,30.9,14.9,30,16,30L16,30z M16,29c-1.654,0-3,1.346-3,3v2h-2c-1.654,0-3,1.346-3,3     s1.346,3,3,3h2v2c0,1.654,1.346,3,3,3s3-1.346,3-3v-2h2c1.654,0,3-1.346,3-3s-1.346-3-3-3h-2v-2C19,30.346,17.654,29,16,29L16,29     z" fill="#FFFFFF"/></g><g><path d="M48,39c-1.657,0-3,1.342-3,3s1.343,3,3,3s3-1.342,3-3S49.657,39,48,39z M48,44c-1.104,0-2-0.896-2-2     s0.896-2,2-2s2,0.896,2,2S49.104,44,48,44z" fill="#FFFFFF"/></g><g><path d="M48,29c-1.657,0-3,1.342-3,3s1.343,3,3,3s3-1.342,3-3S49.657,29,48,29z M48,34c-1.104,0-2-0.896-2-2     s0.896-2,2-2s2,0.896,2,2S49.104,34,48,34z" fill="#FFFFFF"/></g><g><path d="M43,34c-1.657,0-3,1.342-3,3s1.343,3,3,3s3-1.342,3-3S44.657,34,43,34z M43,39c-1.104,0-2-0.896-2-2     s0.896-2,2-2s2,0.896,2,2S44.104,39,43,39z" fill="#FFFFFF"/></g><g><path d="M53,34c-1.657,0-3,1.342-3,3s1.343,3,3,3s3-1.342,3-3S54.657,34,53,34z M53,39c-1.104,0-2-0.896-2-2     s0.896-2,2-2s2,0.896,2,2S54.104,39,53,39z" fill="#FFFFFF"/></g><g><path d="M48,51c-4.16,0-8.035-1.816-10.709-5H26.709C24.035,49.184,20.16,51,16,51C8.28,51,2,44.72,2,37     s6.28-14,14-14h32c7.72,0,14,6.28,14,14S55.72,51,48,51z M25.745,44h12.51l0.3,0.383C40.853,47.317,44.295,49,48,49     c6.617,0,12-5.383,12-12s-5.383-12-12-12H16C9.383,25,4,30.383,4,37s5.383,12,12,12c3.705,0,7.147-1.683,9.445-4.617L25.745,44z" fill="#FFFFFF"/></g><path d="M26,33v3h5v-3H26z M30,35h-3v-1h3V35z" fill="#FFFFFF"/><path d="M33,33v3h5v-3H33z M37,35h-3v-1h3V35z" fill="#FFFFFF"/></g></g></svg>